# xmcd
#
# Track frame offsets: 
#        150
#        11555
#        25250
#        38010
#        54413
#        75220
#        91433
#        101906
#        117183
#        129483
#        141416
#        160118
#        180435
#        192735
#        209947
#        224694
#
# Disc length: 3185 seconds
#
# Revision: 3
# Processed by: cddbd v1.5.2PL0 Copyright (c) Steve Scherf et al.
# Submitted via: ExactAudioCopy v1.0b3
#
DISCID=e50c6f10
DTITLE=Blues Saraceno - The Best of Blues Saraceno
DYEAR=2000
DGENRE=Blues
TTITLE0=Remember When
TTITLE1=Never Look Back
TTITLE2=Full Tank
TTITLE3=Shakes
TTITLE4=Before The Storm
TTITLE5=Funk #49
TTITLE6=Last Train Out
TTITLE7=Elvis Talking
TTITLE8=The Scratch
TTITLE9=A Little More Cream, Please
TTITLE10=A Lighter Shade Of Plaid
TTITLE11=Stinky Kitty
TTITLE12=Rabbit Soup
TTITLE13=King For A Day
TTITLE14=Fat Padding
TTITLE15=Chewing On Crayons
EXTD=
EXTT0=
EXTT1=
EXTT2=
EXTT3=
EXTT4=
EXTT5=
EXTT6=
EXTT7=
EXTT8=
EXTT9=
EXTT10=
EXTT11=
EXTT12=
EXTT13=
EXTT14=
EXTT15=
PLAYORDER=
